<svg width="214" height="49" viewBox="0 0 214 49" fill="none" xmlns="http://www.w3.org/2000/svg">
<g clip-path="url(#clip0_962_794)">
<path d="M13.3975 25.7473C13.3975 13.6638 27.1401 14.509 27.6097 22.7734C27.7662 25.4656 23.6966 25.6847 23.5401 22.9925C23.2584 19.8621 17.4357 18.9856 17.4357 25.7473C17.4357 30.1613 26.0445 44.4361 33.3071 44.4361C39.8811 44.4361 47.0811 25.716 47.0811 17.7647C47.0811 11.2221 43.2307 4.5855 34.6845 4.5855C26.3575 4.5855 23.321 15.3229 17.4984 15.3229C14.8062 15.3229 14.8062 11.2534 17.4984 11.2534C20.1905 11.2534 24.8549 0.515915 34.6845 0.515915C46.8307 0.515915 57.5368 11.9734 46.2359 36.0152C31.9297 66.5371 13.3975 32.3213 13.3975 25.7473Z" fill="#1E84B5"/>
<path d="M0 17.7647C0 3.61506 13.1792 -2.3641 22.1323 1.7994C24.574 2.92636 22.8523 6.6203 20.4105 5.49333C13.9931 2.4881 4.03828 6.6829 4.03828 17.7647C4.03828 25.716 11.2383 44.4361 17.8123 44.4361C25.0749 44.4361 33.6837 30.1926 33.6837 25.7473C33.6837 18.9856 27.861 19.8308 27.5793 23.0239C27.5167 24.1508 26.5462 24.996 25.4193 24.9334C21.6001 24.7143 23.6662 16.6064 30.3967 16.6064C36.3445 16.6064 42.6054 24.8082 31.5549 39.3648C11.7079 65.598 0 27.6882 0 17.7647Z" fill="#1E84B5"/>
<path d="M64.917 37.5V18.384H72.666C74.142 18.384 75.429 18.6 76.527 19.032C77.643 19.464 78.507 20.166 79.119 21.138C79.749 22.11 80.064 23.424 80.064 25.08C80.064 26.61 79.731 27.888 79.065 28.914C78.399 29.94 77.49 30.705 76.338 31.209C75.186 31.695 73.872 31.938 72.396 31.938H69.291V37.5H64.917ZM69.291 28.05H72.396C73.422 28.05 74.232 27.798 74.826 27.294C75.438 26.79 75.744 26.052 75.744 25.08C75.744 24.216 75.483 23.559 74.961 23.109C74.457 22.659 73.62 22.434 72.45 22.434H69.291V28.05ZM82.2276 37.5V23.271H86.0076L86.3046 24.783C86.6646 24.261 87.0606 23.874 87.4926 23.622C87.9426 23.37 88.3926 23.208 88.8426 23.136C89.3106 23.046 89.7606 23.001 90.1926 23.001C90.4626 23.001 90.7056 23.01 90.9216 23.028C91.1556 23.028 91.3086 23.037 91.3806 23.055V27.159H90.4896C89.7336 27.159 89.0496 27.276 88.4376 27.51C87.8436 27.744 87.3756 28.131 87.0336 28.671C86.6916 29.211 86.5206 29.967 86.5206 30.939V37.5H82.2276ZM93.0118 37.5V23.271H97.3048V37.5H93.0118ZM95.1718 22.083C94.3798 22.083 93.7408 21.849 93.2548 21.381C92.7868 20.913 92.5528 20.301 92.5528 19.545C92.5528 18.771 92.8048 18.141 93.3088 17.655C93.8128 17.169 94.4428 16.926 95.1988 16.926C95.9188 16.926 96.5308 17.16 97.0348 17.628C97.5388 18.096 97.7908 18.726 97.7908 19.518C97.7908 20.292 97.5478 20.913 97.0618 21.381C96.5758 21.849 95.9458 22.083 95.1718 22.083ZM100.052 37.5V23.271H103.859L104.237 24.81C104.633 24.288 105.056 23.901 105.506 23.649C105.974 23.379 106.424 23.208 106.856 23.136C107.306 23.064 107.684 23.028 107.99 23.028C108.782 23.028 109.511 23.172 110.177 23.46C110.843 23.748 111.383 24.27 111.797 25.026C112.193 24.486 112.625 24.081 113.093 23.811C113.561 23.523 114.038 23.325 114.524 23.217C115.01 23.091 115.496 23.028 115.982 23.028C117.116 23.028 118.025 23.262 118.709 23.73C119.393 24.18 119.897 24.828 120.221 25.674C120.545 26.502 120.707 27.465 120.707 28.563V37.5H116.441V29.508C116.441 29.256 116.423 28.977 116.387 28.671C116.351 28.365 116.27 28.086 116.144 27.834C116.036 27.564 115.865 27.348 115.631 27.186C115.397 27.006 115.073 26.916 114.659 26.916C114.245 26.916 113.903 27.006 113.633 27.186C113.363 27.348 113.147 27.573 112.985 27.861C112.823 28.131 112.706 28.437 112.634 28.779C112.58 29.121 112.553 29.463 112.553 29.805V37.5H108.287V29.481C108.287 29.247 108.26 28.986 108.206 28.698C108.17 28.392 108.089 28.104 107.963 27.834C107.855 27.564 107.675 27.348 107.423 27.186C107.189 27.006 106.847 26.916 106.397 26.916C105.785 26.916 105.326 27.087 105.02 27.429C104.732 27.771 104.543 28.176 104.453 28.644C104.381 29.112 104.345 29.544 104.345 29.94V37.5H100.052ZM129.975 37.716C128.499 37.716 127.221 37.419 126.141 36.825C125.079 36.231 124.26 35.394 123.684 34.314C123.108 33.216 122.82 31.929 122.82 30.453C122.82 28.977 123.117 27.681 123.711 26.565C124.305 25.449 125.133 24.576 126.195 23.946C127.275 23.316 128.544 23.001 130.002 23.001C131.064 23.001 132 23.172 132.81 23.514C133.638 23.856 134.34 24.342 134.916 24.972C135.51 25.602 135.951 26.349 136.239 27.213C136.545 28.077 136.698 29.022 136.698 30.048C136.68 30.318 136.662 30.588 136.644 30.858C136.626 31.11 136.581 31.371 136.509 31.641H127.059C127.113 32.091 127.248 32.505 127.464 32.883C127.68 33.261 127.986 33.558 128.382 33.774C128.778 33.99 129.282 34.098 129.894 34.098C130.326 34.098 130.713 34.053 131.055 33.963C131.415 33.855 131.712 33.711 131.946 33.531C132.18 33.333 132.333 33.117 132.405 32.883H136.617C136.383 34.017 135.933 34.944 135.267 35.664C134.601 36.366 133.809 36.888 132.891 37.23C131.973 37.554 131.001 37.716 129.975 37.716ZM127.14 28.752H132.621C132.621 28.374 132.522 28.005 132.324 27.645C132.144 27.285 131.856 26.997 131.46 26.781C131.064 26.547 130.551 26.43 129.921 26.43C129.309 26.43 128.796 26.547 128.382 26.781C127.968 27.015 127.662 27.312 127.464 27.672C127.266 28.032 127.158 28.392 127.14 28.752ZM145.398 37.662C143.904 37.662 142.662 37.356 141.672 36.744C140.7 36.114 139.971 35.25 139.485 34.152C139.017 33.054 138.783 31.812 138.783 30.426C138.783 29.076 139.026 27.852 139.512 26.754C140.016 25.638 140.772 24.756 141.78 24.108C142.806 23.442 144.102 23.109 145.668 23.109C146.64 23.109 147.504 23.271 148.26 23.595C149.034 23.919 149.673 24.396 150.177 25.026C150.681 25.638 151.032 26.412 151.23 27.348H148.881C148.611 26.556 148.179 25.998 147.585 25.674C147.009 25.332 146.325 25.161 145.533 25.161C144.453 25.161 143.589 25.413 142.941 25.917C142.293 26.421 141.816 27.078 141.51 27.888C141.222 28.68 141.078 29.526 141.078 30.426C141.078 31.362 141.231 32.226 141.537 33.018C141.843 33.81 142.32 34.449 142.968 34.935C143.616 35.403 144.453 35.637 145.479 35.637C146.235 35.637 146.946 35.475 147.612 35.151C148.296 34.827 148.746 34.251 148.962 33.423H151.338C151.158 34.395 150.771 35.196 150.177 35.826C149.601 36.456 148.89 36.924 148.044 37.23C147.216 37.518 146.334 37.662 145.398 37.662ZM158.81 37.662C158.162 37.662 157.532 37.581 156.92 37.419C156.326 37.239 155.786 36.978 155.3 36.636C154.832 36.276 154.454 35.835 154.166 35.313C153.896 34.773 153.761 34.152 153.761 33.45C153.761 32.64 153.905 31.956 154.193 31.398C154.499 30.84 154.904 30.399 155.408 30.075C155.912 29.751 156.497 29.517 157.163 29.373C157.829 29.229 158.522 29.157 159.242 29.157H163.427C163.427 28.347 163.31 27.645 163.076 27.051C162.86 26.457 162.5 25.998 161.996 25.674C161.492 25.332 160.826 25.161 159.998 25.161C159.494 25.161 159.026 25.215 158.594 25.323C158.162 25.431 157.793 25.602 157.487 25.836C157.181 26.07 156.956 26.385 156.812 26.781H154.355C154.481 26.133 154.724 25.584 155.084 25.134C155.462 24.666 155.912 24.288 156.434 24C156.974 23.694 157.55 23.469 158.162 23.325C158.774 23.181 159.386 23.109 159.998 23.109C162.05 23.109 163.508 23.712 164.372 24.918C165.236 26.124 165.668 27.753 165.668 29.805V37.5H163.751L163.616 35.691C163.22 36.231 162.743 36.645 162.185 36.933C161.627 37.221 161.051 37.41 160.457 37.5C159.881 37.608 159.332 37.662 158.81 37.662ZM159.026 35.637C159.926 35.637 160.7 35.493 161.348 35.205C162.014 34.899 162.527 34.458 162.887 33.882C163.247 33.306 163.427 32.604 163.427 31.776V31.074H160.916C160.322 31.074 159.737 31.083 159.161 31.101C158.585 31.119 158.063 31.191 157.595 31.317C157.127 31.443 156.749 31.659 156.461 31.965C156.191 32.271 156.056 32.712 156.056 33.288C156.056 33.828 156.191 34.269 156.461 34.611C156.749 34.953 157.118 35.214 157.568 35.394C158.036 35.556 158.522 35.637 159.026 35.637ZM169.223 37.5V23.271H171.437L171.545 25.485C171.905 24.927 172.319 24.477 172.787 24.135C173.273 23.793 173.804 23.541 174.38 23.379C174.974 23.199 175.613 23.109 176.297 23.109C176.423 23.109 176.54 23.109 176.648 23.109C176.774 23.109 176.9 23.109 177.026 23.109V25.269H176.189C175.073 25.269 174.164 25.512 173.462 25.998C172.778 26.466 172.283 27.105 171.977 27.915C171.671 28.707 171.518 29.589 171.518 30.561V37.5H169.223ZM185.188 37.662C183.676 37.662 182.425 37.356 181.435 36.744C180.445 36.114 179.707 35.25 179.221 34.152C178.735 33.054 178.492 31.803 178.492 30.399C178.492 28.977 178.744 27.726 179.248 26.646C179.77 25.548 180.526 24.684 181.516 24.054C182.506 23.424 183.721 23.109 185.161 23.109C186.277 23.109 187.231 23.325 188.023 23.757C188.833 24.171 189.499 24.729 190.021 25.431C190.543 26.133 190.921 26.907 191.155 27.753C191.389 28.581 191.488 29.418 191.452 30.264C191.434 30.426 191.416 30.588 191.398 30.75C191.398 30.912 191.389 31.074 191.371 31.236H180.814C180.886 32.064 181.093 32.811 181.435 33.477C181.777 34.143 182.263 34.674 182.893 35.07C183.523 35.448 184.306 35.637 185.242 35.637C185.71 35.637 186.178 35.583 186.646 35.475C187.132 35.349 187.564 35.142 187.942 34.854C188.338 34.566 188.617 34.179 188.779 33.693H191.128C190.912 34.611 190.507 35.367 189.913 35.961C189.319 36.537 188.608 36.969 187.78 37.257C186.952 37.527 186.088 37.662 185.188 37.662ZM180.868 29.238H189.103C189.085 28.428 188.905 27.717 188.563 27.105C188.221 26.493 187.753 26.016 187.159 25.674C186.583 25.332 185.89 25.161 185.08 25.161C184.198 25.161 183.451 25.35 182.839 25.728C182.245 26.106 181.786 26.601 181.462 27.213C181.138 27.825 180.94 28.5 180.868 29.238Z" fill="white"/>
</g>
<defs>
<clipPath id="clip0_962_794">
<rect width="214" height="48" fill="white" transform="translate(0 0.5)"/>
</clipPath>
</defs>
</svg>
